<?xml version="1.0" standalone="no"?>
<!DOCTYPE svg PUBLIC "-//W3C//DTD SVG 20010904//EN"
 "http://www.w3.org/TR/2001/REC-SVG-20010904/DTD/svg10.dtd">
<svg version="1.0" xmlns="http://www.w3.org/2000/svg"
 width="1404.000000pt" height="1872.000000pt" viewBox="0 0 1404.000000 1872.000000"
 preserveAspectRatio="xMidYMid meet">
<metadata>
Created by potrace 1.16, written by Peter Selinger 2001-2019
</metadata>
<g transform="translate(0.000000,1872.000000) scale(0.100000,-0.100000)"
fill="#000000" stroke="none">
<path d="M5420 11315 l0 -6975 -2475 0 -2475 0 0 -245 0 -245 2720 0 2720 0 0
225 0 225 4050 0 c4043 0 4050 0 4050 20 0 20 -7 20 -4050 20 l-4050 0 0 6975
0 6975 -245 0 -245 0 0 -6975z m450 6730 l0 -205 -205 0 -205 0 0 205 0 205
205 0 205 0 0 -205z m0 -450 l0 -205 -205 0 -205 0 0 205 0 205 205 0 205 0 0
-205z m0 -450 l0 -205 -205 0 -205 0 0 205 0 205 205 0 205 0 0 -205z m0 -450
l0 -205 -205 0 -205 0 0 205 0 205 205 0 205 0 0 -205z m0 -450 l0 -205 -205
0 -205 0 0 205 0 205 205 0 205 0 0 -205z m0 -450 l0 -205 -205 0 -205 0 0
205 0 205 205 0 205 0 0 -205z m0 -450 l0 -205 -205 0 -205 0 0 205 0 205 205
0 205 0 0 -205z m0 -450 l0 -205 -205 0 -205 0 0 205 0 205 205 0 205 0 0
-205z m0 -450 l0 -205 -205 0 -205 0 0 205 0 205 205 0 205 0 0 -205z m0 -450
l0 -205 -205 0 -205 0 0 205 0 205 205 0 205 0 0 -205z m0 -450 l0 -205 -205
0 -205 0 0 205 0 205 205 0 205 0 0 -205z m0 -450 l0 -205 -205 0 -205 0 0
205 0 205 205 0 205 0 0 -205z m0 -450 l0 -205 -205 0 -205 0 0 205 0 205 205
0 205 0 0 -205z m0 -450 l0 -205 -205 0 -205 0 0 205 0 205 205 0 205 0 0
-205z m0 -450 l0 -205 -205 0 -205 0 0 205 0 205 205 0 205 0 0 -205z m0 -450
l0 -205 -205 0 -205 0 0 205 0 205 205 0 205 0 0 -205z m0 -450 l0 -205 -205
0 -205 0 0 205 0 205 205 0 205 0 0 -205z m0 -450 l0 -205 -205 0 -205 0 0
205 0 205 205 0 205 0 0 -205z m0 -450 l0 -205 -205 0 -205 0 0 205 0 205 205
0 205 0 0 -205z m0 -450 l0 -205 -205 0 -205 0 0 205 0 205 205 0 205 0 0
-205z m0 -450 l0 -205 -205 0 -205 0 0 205 0 205 205 0 205 0 0 -205z m0 -450
l0 -205 -205 0 -205 0 0 205 0 205 205 0 205 0 0 -205z m0 -450 l0 -205 -205
0 -205 0 0 205 0 205 205 0 205 0 0 -205z m0 -450 l0 -205 -205 0 -205 0 0
205 0 205 205 0 205 0 0 -205z m0 -450 l0 -205 -205 0 -205 0 0 205 0 205 205
0 205 0 0 -205z m0 -450 l0 -205 -205 0 -205 0 0 205 0 205 205 0 205 0 0
-205z m0 -450 l0 -205 -205 0 -205 0 0 205 0 205 205 0 205 0 0 -205z m0 -450
l0 -205 -205 0 -205 0 0 205 0 205 205 0 205 0 0 -205z m0 -450 l0 -205 -205
0 -205 0 0 205 0 205 205 0 205 0 0 -205z m0 -450 l0 -205 -205 0 -205 0 0
205 0 205 205 0 205 0 0 -205z m0 -450 l0 -205 -205 0 -205 0 0 205 0 205 205
0 205 0 0 -205z m-450 -455 l0 -210 -2455 0 -2455 0 0 210 0 210 2455 0 2455
0 0 -210z m450 5 l0 -205 -205 0 -205 0 0 205 0 205 205 0 205 0 0 -205z"/>
<path d="M654 4271 c-28 -12 -54 -49 -54 -78 0 -12 11 -35 24 -50 23 -27 28
-28 111 -28 83 0 88 1 111 28 30 36 30 68 0 104 -22 25 -31 28 -97 30 -41 2
-84 -1 -95 -6z m164 -37 c26 -18 29 -56 6 -78 -11 -12 -35 -16 -86 -16 -79 0
-108 15 -108 56 0 35 36 54 105 54 39 0 69 -6 83 -16z"/>
<path d="M2543 4178 c-33 -16 -48 -62 -35 -104 11 -38 5 -41 -37 -19 -32 16
-41 33 -41 77 0 19 -4 28 -12 25 -25 -8 -11 -79 22 -111 26 -27 38 -31 98 -34
62 -4 71 -2 98 21 36 31 40 95 9 127 -25 24 -73 33 -102 18z m75 -34 c50 -34
14 -108 -50 -102 -31 3 -33 5 -36 45 -2 33 1 44 20 57 28 20 38 20 66 0z"/>
<path d="M3470 4170 c0 -18 -7 -20 -80 -20 -60 0 -80 -3 -80 -13 0 -21 142
-137 168 -137 20 0 22 4 22 60 l0 60 35 0 c24 0 35 5 35 15 0 10 -11 15 -35
15 -28 0 -35 4 -35 20 0 11 -7 20 -15 20 -8 0 -15 -9 -15 -20z m0 -101 c0 -57
2 -57 -80 14 l-44 37 62 0 62 0 0 -51z"/>
<path d="M1084 4157 c-53 -46 -33 -135 33 -152 64 -16 116 44 95 111 -11 38
-5 41 37 19 32 -16 41 -33 41 -76 0 -20 5 -29 16 -29 28 0 9 79 -26 115 -26
26 -38 30 -98 33 -62 4 -71 2 -98 -21z m104 -50 c5 -65 -37 -95 -86 -61 -49
34 -15 107 47 102 34 -3 36 -5 39 -41z"/>
<path d="M1529 4161 c-34 -28 -34 -104 0 -132 30 -24 53 -24 76 1 18 19 18 19
47 -6 33 -27 59 -25 93 7 27 26 27 99 1 128 -25 27 -77 28 -101 1 -17 -19 -18
-19 -43 0 -31 25 -44 25 -73 1z m76 -27 c18 -19 12 -49 -16 -79 -26 -26 -53
-10 -57 34 -6 55 37 81 73 45z m123 4 c21 -21 15 -76 -12 -93 -26 -17 -75 -6
-77 17 -6 64 52 113 89 76z"/>
<path d="M1960 4095 c0 -68 3 -85 15 -85 11 0 15 17 17 74 l3 73 105 -58 c113
-63 120 -66 120 -46 0 16 -207 127 -237 127 -22 0 -23 -3 -23 -85z"/>
<path d="M2850 4105 l0 -75 65 0 65 0 0 44 c0 50 19 76 54 76 39 0 59 -33 54
-85 -7 -57 17 -64 27 -7 11 67 -27 122 -85 122 -42 0 -68 -26 -76 -75 -6 -43
-8 -45 -40 -45 l-34 0 0 60 c0 47 -3 60 -15 60 -12 0 -15 -15 -15 -75z"/>
<path d="M3892 4155 c-19 -24 -19 -24 -38 -4 -12 13 -28 19 -48 17 -42 -4 -62
-45 -50 -101 12 -53 38 -65 29 -13 -10 53 1 86 28 86 29 0 47 -18 47 -47 0
-36 28 -28 32 9 4 43 47 61 78 33 22 -20 27 -73 9 -107 -9 -17 -8 -19 7 -16
42 8 40 114 -3 148 -34 27 -67 25 -91 -5z"/>
<path d="M4440 4113 l0 -66 -64 61 c-53 51 -70 62 -99 62 -54 0 -84 -48 -71
-115 10 -54 30 -44 29 16 0 94 57 93 146 -2 79 -83 89 -80 89 26 0 69 -3 85
-15 85 -12 0 -15 -14 -15 -67z"/>
<path d="M5154 4171 c-28 -12 -54 -49 -54 -78 0 -12 11 -35 24 -50 23 -27 28
-28 111 -28 83 0 88 1 111 28 30 36 30 68 0 104 -22 25 -31 28 -97 30 -41 2
-84 -1 -95 -6z m164 -37 c26 -18 29 -56 6 -78 -11 -12 -35 -16 -86 -16 -79 0
-108 15 -108 56 0 35 36 54 105 54 39 0 69 -6 83 -16z"/>
<path d="M4890 4140 l0 -30 -115 0 c-63 0 -115 -3 -115 -8 0 -4 9 -13 20 -20
11 -7 20 -21 20 -32 0 -11 7 -20 15 -20 10 0 15 10 15 30 l0 30 80 0 80 0 0
-30 c0 -20 5 -30 15 -30 12 0 15 14 15 70 0 56 -3 70 -15 70 -10 0 -15 -10
-15 -30z"/>
<path d="M840 4010 l0 -30 -115 0 c-63 0 -115 -3 -115 -8 0 -4 9 -13 20 -20
11 -7 20 -21 20 -32 0 -11 7 -20 15 -20 10 0 15 10 15 30 l0 30 80 0 80 0 0
-30 c0 -20 5 -30 15 -30 12 0 15 14 15 70 0 56 -3 70 -15 70 -10 0 -15 -10
-15 -30z"/>
</g>
</svg>
