<?xml version="1.0" standalone="no"?>
<!DOCTYPE svg PUBLIC "-//W3C//DTD SVG 20010904//EN"
 "http://www.w3.org/TR/2001/REC-SVG-20010904/DTD/svg10.dtd">
<svg version="1.0" xmlns="http://www.w3.org/2000/svg"
 width="1404.000000pt" height="1872.000000pt" viewBox="0 0 1404.000000 1872.000000"
 preserveAspectRatio="xMidYMid meet">
<metadata>
Created by potrace 1.16, written by Peter Selinger 2001-2019
</metadata>
<g transform="translate(0.000000,1872.000000) scale(0.100000,-0.100000)"
fill="#000000" stroke="none">
<path d="M470 7245 c0 -6988 0 -6995 20 -6995 20 0 20 7 20 6995 0 6988 0
6995 -20 6995 -20 0 -20 -7 -20 -6995z"/>
<path d="M920 7245 c0 -6988 0 -6995 20 -6995 20 0 20 7 20 6995 0 6988 0
6995 -20 6995 -20 0 -20 -7 -20 -6995z"/>
<path d="M1370 7245 c0 -6988 0 -6995 20 -6995 20 0 20 7 20 6995 0 6988 0
6995 -20 6995 -20 0 -20 -7 -20 -6995z"/>
<path d="M1820 7245 c0 -6988 0 -6995 20 -6995 20 0 20 7 20 6995 0 6988 0
6995 -20 6995 -20 0 -20 -7 -20 -6995z"/>
<path d="M760 14080 c0 -20 5 -30 15 -30 12 0 15 -17 15 -95 l0 -95 30 0 30 0
0 125 0 125 -45 0 c-43 0 -45 -1 -45 -30z"/>
<path d="M767 13638 c-14 -12 -28 -33 -32 -45 -6 -20 -3 -23 23 -23 17 0 32 6
36 15 3 8 12 15 21 15 38 0 1 -83 -73 -162 l-26 -28 87 0 87 0 0 30 c0 27 -3
30 -32 30 l-32 0 28 29 c36 38 45 98 20 129 -29 34 -75 39 -107 10z"/>
<path d="M790 13203 c-24 -9 -50 -35 -50 -51 0 -12 9 -13 45 -9 36 5 45 4 45
-8 0 -8 -9 -15 -20 -15 -15 0 -20 -7 -20 -25 0 -18 5 -25 20 -25 25 0 37 -27
21 -43 -9 -9 -16 -9 -31 1 -19 11 -70 17 -70 7 0 -32 48 -75 85 -75 29 0 64
24 75 51 10 23 9 34 -4 60 -11 22 -13 36 -6 43 40 40 -31 111 -90 89z"/>
<path d="M760 12680 c-55 -108 -54 -120 10 -120 47 0 50 -2 50 -25 0 -21 5
-25 30 -25 25 0 30 4 30 25 0 14 5 25 10 25 6 0 10 11 10 25 0 14 -4 25 -10
25 -6 0 -10 32 -10 75 l0 75 -40 0 c-40 0 -40 0 -80 -80z m60 -35 c0 -28 -4
-35 -20 -35 -24 0 -24 3 -5 40 20 39 25 38 25 -5z"/>
<path d="M767 12303 c-3 -5 -8 -37 -12 -72 -7 -61 -7 -63 14 -56 34 10 63 -3
59 -28 -3 -19 -9 -22 -45 -21 -39 1 -43 -2 -43 -23 0 -47 81 -54 128 -11 43
41 17 128 -38 128 -11 0 -20 7 -20 15 0 10 11 15 35 15 32 0 35 2 35 30 0 30
-1 30 -54 30 -30 0 -57 -3 -59 -7z"/>
<path d="M765 11799 c-18 -36 -30 -77 -30 -101 0 -78 85 -113 140 -58 29 30
27 96 -4 122 -14 10 -30 17 -38 14 -19 -8 -16 15 7 44 27 34 25 40 -13 40 -31
0 -35 -4 -62 -61z m70 -104 c0 -23 -4 -30 -20 -30 -21 0 -31 25 -21 51 11 28
41 12 41 -21z"/>
<path d="M730 11380 c0 -29 2 -30 43 -30 l43 0 -43 -87 c-23 -49 -43 -91 -43
-95 0 -5 15 -8 34 -8 28 0 36 5 44 28 6 15 31 71 56 125 l45 97 -89 0 -90 0 0
-30z"/>
<path d="M780 10953 c-46 -17 -65 -68 -35 -93 13 -11 12 -15 -5 -37 -27 -34
-25 -49 9 -84 33 -32 58 -36 100 -14 36 18 47 59 26 91 -14 22 -14 26 1 49 20
31 11 61 -26 80 -30 16 -45 17 -70 8z m45 -63 c0 -8 -8 -16 -17 -18 -13 -2
-18 3 -18 18 0 15 5 20 18 18 9 -2 17 -10 17 -18z m3 -93 c4 -20 -25 -34 -40
-19 -15 15 -1 44 19 40 10 -2 19 -11 21 -21z"/>
<path d="M780 10497 c-33 -17 -53 -60 -45 -98 7 -31 47 -65 65 -54 16 10 12
-7 -10 -43 -11 -18 -20 -35 -20 -37 0 -3 15 -5 33 -5 31 0 35 4 62 61 39 81
39 133 2 165 -32 27 -51 29 -87 11z m55 -72 c0 -23 -4 -30 -20 -30 -21 0 -31
25 -21 51 11 28 41 12 41 -21z"/>
<path d="M570 10030 c0 -20 5 -30 15 -30 12 0 15 -17 15 -95 l0 -95 30 0 30 0
0 125 0 125 -45 0 c-43 0 -45 -1 -45 -30z"/>
<path d="M760 10032 c-36 -36 -46 -88 -29 -143 36 -109 148 -97 165 18 12 80
-32 153 -92 153 -9 0 -28 -13 -44 -28z m74 -63 c13 -39 -1 -99 -23 -99 -26 0
-42 71 -25 115 9 23 37 14 48 -16z"/>
<path d="M590 9580 c0 -20 5 -30 15 -30 12 0 15 -17 15 -95 l0 -95 30 0 30 0
0 125 0 125 -45 0 c-43 0 -45 -1 -45 -30z"/>
<path d="M760 9580 c0 -20 5 -30 15 -30 12 0 15 -17 15 -95 l0 -95 30 0 30 0
0 125 0 125 -45 0 c-43 0 -45 -1 -45 -30z"/>
<path d="M580 9130 c0 -20 5 -30 15 -30 12 0 15 -17 15 -95 l0 -95 30 0 30 0
0 125 0 125 -45 0 c-43 0 -45 -1 -45 -30z"/>
<path d="M767 9138 c-14 -12 -28 -33 -32 -45 -6 -20 -3 -23 23 -23 17 0 32 6
36 15 3 8 12 15 21 15 38 0 1 -83 -73 -162 l-26 -28 87 0 87 0 0 30 c0 27 -3
30 -32 30 l-32 0 28 29 c36 38 45 98 20 129 -29 34 -75 39 -107 10z"/>
<path d="M580 8680 c0 -20 5 -30 15 -30 12 0 15 -17 15 -95 l0 -95 30 0 30 0
0 125 0 125 -45 0 c-43 0 -45 -1 -45 -30z"/>
<path d="M790 8703 c-24 -9 -50 -35 -50 -51 0 -12 9 -13 45 -9 36 5 45 4 45
-8 0 -8 -9 -15 -20 -15 -15 0 -20 -7 -20 -25 0 -18 5 -25 20 -25 25 0 37 -27
21 -43 -9 -9 -16 -9 -31 1 -19 11 -70 17 -70 7 0 -32 48 -75 85 -75 29 0 64
24 75 51 10 23 9 34 -4 60 -11 22 -13 36 -6 43 40 40 -31 111 -90 89z"/>
<path d="M580 8230 c0 -20 5 -30 15 -30 12 0 15 -17 15 -95 l0 -95 30 0 30 0
0 125 0 125 -45 0 c-43 0 -45 -1 -45 -30z"/>
<path d="M760 8180 c-55 -108 -54 -120 10 -120 47 0 50 -2 50 -25 0 -21 5 -25
30 -25 25 0 30 4 30 25 0 14 5 25 10 25 6 0 10 11 10 25 0 14 -4 25 -10 25 -6
0 -10 32 -10 75 l0 75 -40 0 c-40 0 -40 0 -80 -80z m60 -35 c0 -28 -4 -35 -20
-35 -24 0 -24 3 -5 40 20 39 25 38 25 -5z"/>
<path d="M580 7780 c0 -20 5 -30 15 -30 12 0 15 -17 15 -95 l0 -95 30 0 30 0
0 125 0 125 -45 0 c-43 0 -45 -1 -45 -30z"/>
<path d="M767 7803 c-3 -5 -8 -37 -12 -72 -7 -61 -7 -63 14 -56 34 10 63 -3
59 -28 -3 -19 -9 -22 -45 -21 -39 1 -43 -2 -43 -23 0 -47 81 -54 128 -11 43
41 17 128 -38 128 -11 0 -20 7 -20 15 0 10 11 15 35 15 32 0 35 2 35 30 0 30
-1 30 -54 30 -30 0 -57 -3 -59 -7z"/>
<path d="M580 7330 c0 -20 5 -30 15 -30 12 0 15 -17 15 -95 l0 -95 30 0 30 0
0 125 0 125 -45 0 c-43 0 -45 -1 -45 -30z"/>
<path d="M765 7299 c-18 -36 -30 -77 -30 -101 0 -78 85 -113 140 -58 29 30 27
96 -4 122 -14 10 -30 17 -38 14 -19 -8 -16 15 7 44 27 34 25 40 -13 40 -31 0
-35 -4 -62 -61z m70 -104 c0 -23 -4 -30 -20 -30 -21 0 -31 25 -21 51 11 28 41
12 41 -21z"/>
<path d="M580 6880 c0 -20 5 -30 15 -30 12 0 15 -17 15 -95 l0 -95 30 0 30 0
0 125 0 125 -45 0 c-43 0 -45 -1 -45 -30z"/>
<path d="M730 6880 c0 -29 2 -30 43 -30 l43 0 -43 -87 c-23 -49 -43 -91 -43
-95 0 -5 15 -8 34 -8 28 0 36 5 44 28 6 15 31 71 56 125 l45 97 -89 0 -90 0 0
-30z"/>
<path d="M570 6430 c0 -20 5 -30 15 -30 12 0 15 -17 15 -95 l0 -95 30 0 30 0
0 125 0 125 -45 0 c-43 0 -45 -1 -45 -30z"/>
<path d="M780 6453 c-46 -17 -65 -68 -35 -93 13 -11 12 -15 -5 -37 -27 -34
-25 -49 9 -84 33 -32 58 -36 100 -14 36 18 47 59 26 91 -14 22 -14 26 1 49 20
31 11 61 -26 80 -30 16 -45 17 -70 8z m45 -63 c0 -8 -8 -16 -17 -18 -13 -2
-18 3 -18 18 0 15 5 20 18 18 9 -2 17 -10 17 -18z m3 -93 c4 -20 -25 -34 -40
-19 -15 15 -1 44 19 40 10 -2 19 -11 21 -21z"/>
<path d="M580 5980 c0 -20 5 -30 15 -30 12 0 15 -17 15 -95 l0 -95 30 0 30 0
0 125 0 125 -45 0 c-43 0 -45 -1 -45 -30z"/>
<path d="M780 5997 c-33 -17 -53 -60 -45 -98 7 -31 47 -65 65 -54 16 10 12 -7
-10 -43 -11 -18 -20 -35 -20 -37 0 -3 15 -5 33 -5 31 0 35 4 62 61 39 81 39
133 2 165 -32 27 -51 29 -87 11z m55 -72 c0 -23 -4 -30 -20 -30 -21 0 -31 25
-21 51 11 28 41 12 41 -21z"/>
<path d="M567 5538 c-14 -12 -28 -33 -32 -45 -6 -20 -3 -23 23 -23 17 0 32 6
36 15 3 8 12 15 21 15 38 0 1 -83 -73 -162 l-26 -28 87 0 87 0 0 30 c0 27 -3
30 -32 30 l-32 0 28 29 c36 38 45 98 20 129 -29 34 -75 39 -107 10z"/>
<path d="M760 5532 c-36 -36 -46 -88 -29 -143 36 -109 148 -97 165 18 12 80
-32 153 -92 153 -9 0 -28 -13 -44 -28z m74 -63 c13 -39 -1 -99 -23 -99 -26 0
-42 71 -25 115 9 23 37 14 48 -16z"/>
<path d="M587 5088 c-14 -12 -28 -33 -32 -45 -6 -20 -3 -23 23 -23 17 0 32 6
36 15 3 8 12 15 21 15 38 0 1 -83 -73 -162 l-26 -28 87 0 87 0 0 30 c0 27 -3
30 -32 30 l-32 0 28 29 c36 38 45 98 20 129 -29 34 -75 39 -107 10z"/>
<path d="M760 5080 c0 -20 5 -30 15 -30 12 0 15 -17 15 -95 l0 -95 30 0 30 0
0 125 0 125 -45 0 c-43 0 -45 -1 -45 -30z"/>
<path d="M567 4638 c-14 -12 -28 -33 -32 -45 -6 -20 -3 -23 23 -23 17 0 32 6
36 15 3 8 12 15 21 15 38 0 1 -83 -73 -162 l-26 -28 87 0 87 0 0 30 c0 27 -3
30 -32 30 l-32 0 28 29 c36 38 45 98 20 129 -29 34 -75 39 -107 10z"/>
<path d="M767 4638 c-14 -12 -28 -33 -32 -45 -6 -20 -3 -23 23 -23 17 0 32 6
36 15 3 8 12 15 21 15 38 0 1 -83 -73 -162 l-26 -28 87 0 87 0 0 30 c0 27 -3
30 -32 30 l-32 0 28 29 c36 38 45 98 20 129 -29 34 -75 39 -107 10z"/>
<path d="M567 4188 c-14 -12 -28 -33 -32 -45 -6 -20 -3 -23 23 -23 17 0 32 6
36 15 3 8 12 15 21 15 38 0 1 -83 -73 -162 l-26 -28 87 0 87 0 0 30 c0 27 -3
30 -32 30 l-32 0 28 29 c36 38 45 98 20 129 -29 34 -75 39 -107 10z"/>
<path d="M790 4203 c-24 -9 -50 -35 -50 -51 0 -12 9 -13 45 -9 36 5 45 4 45
-8 0 -8 -9 -15 -20 -15 -15 0 -20 -7 -20 -25 0 -18 5 -25 20 -25 25 0 37 -27
21 -43 -9 -9 -16 -9 -31 1 -19 11 -70 17 -70 7 0 -32 48 -75 85 -75 29 0 64
24 75 51 10 23 9 34 -4 60 -11 22 -13 36 -6 43 40 40 -31 111 -90 89z"/>
<path d="M567 3738 c-14 -12 -28 -33 -32 -45 -6 -20 -3 -23 23 -23 17 0 32 6
36 15 3 8 12 15 21 15 38 0 1 -83 -73 -162 l-26 -28 87 0 87 0 0 30 c0 27 -3
30 -32 30 l-32 0 28 29 c36 38 45 98 20 129 -29 34 -75 39 -107 10z"/>
<path d="M760 3680 c-55 -108 -54 -120 10 -120 47 0 50 -2 50 -25 0 -21 5 -25
30 -25 25 0 30 4 30 25 0 14 5 25 10 25 6 0 10 11 10 25 0 14 -4 25 -10 25 -6
0 -10 32 -10 75 l0 75 -40 0 c-40 0 -40 0 -80 -80z m60 -35 c0 -28 -4 -35 -20
-35 -24 0 -24 3 -5 40 20 39 25 38 25 -5z"/>
<path d="M567 3288 c-14 -12 -28 -33 -32 -45 -6 -20 -3 -23 23 -23 17 0 32 6
36 15 3 8 12 15 21 15 38 0 1 -83 -73 -162 l-26 -28 87 0 87 0 0 30 c0 27 -3
30 -32 30 l-32 0 28 29 c36 38 45 98 20 129 -29 34 -75 39 -107 10z"/>
<path d="M767 3303 c-3 -5 -8 -37 -12 -72 -7 -61 -7 -63 14 -56 34 10 63 -3
59 -28 -3 -19 -9 -22 -45 -21 -39 1 -43 -2 -43 -23 0 -47 81 -54 128 -11 43
41 17 128 -38 128 -11 0 -20 7 -20 15 0 10 11 15 35 15 32 0 35 2 35 30 0 30
-1 30 -54 30 -30 0 -57 -3 -59 -7z"/>
<path d="M567 2838 c-14 -12 -28 -33 -32 -45 -6 -20 -3 -23 23 -23 17 0 32 6
36 15 3 8 12 15 21 15 38 0 1 -83 -73 -162 l-26 -28 87 0 87 0 0 30 c0 27 -3
30 -32 30 l-32 0 28 29 c36 38 45 98 20 129 -29 34 -75 39 -107 10z"/>
<path d="M765 2799 c-18 -36 -30 -77 -30 -101 0 -78 85 -113 140 -58 29 30 27
96 -4 122 -14 10 -30 17 -38 14 -19 -8 -16 15 7 44 27 34 25 40 -13 40 -31 0
-35 -4 -62 -61z m70 -104 c0 -23 -4 -30 -20 -30 -21 0 -31 25 -21 51 11 28 41
12 41 -21z"/>
<path d="M567 2388 c-14 -12 -28 -33 -32 -45 -6 -20 -3 -23 23 -23 17 0 32 6
36 15 3 8 12 15 21 15 38 0 1 -83 -73 -162 l-26 -28 87 0 87 0 0 30 c0 27 -3
30 -32 30 l-32 0 28 29 c36 38 45 98 20 129 -29 34 -75 39 -107 10z"/>
<path d="M730 2380 c0 -29 2 -30 43 -30 l43 0 -43 -87 c-23 -49 -43 -91 -43
-95 0 -5 15 -8 34 -8 28 0 36 5 44 28 6 15 31 71 56 125 l45 97 -89 0 -90 0 0
-30z"/>
<path d="M567 1938 c-14 -12 -28 -33 -32 -45 -6 -20 -3 -23 23 -23 17 0 32 6
36 15 3 8 12 15 21 15 38 0 1 -83 -73 -162 l-26 -28 87 0 87 0 0 30 c0 27 -3
30 -32 30 l-32 0 28 29 c36 38 45 98 20 129 -29 34 -75 39 -107 10z"/>
<path d="M780 1953 c-46 -17 -65 -68 -35 -93 13 -11 12 -15 -5 -37 -27 -34
-25 -49 9 -84 33 -32 58 -36 100 -14 36 18 47 59 26 91 -14 22 -14 26 1 49 20
31 11 61 -26 80 -30 16 -45 17 -70 8z m45 -63 c0 -8 -8 -16 -17 -18 -13 -2
-18 3 -18 18 0 15 5 20 18 18 9 -2 17 -10 17 -18z m3 -93 c4 -20 -25 -34 -40
-19 -15 15 -1 44 19 40 10 -2 19 -11 21 -21z"/>
<path d="M567 1488 c-14 -12 -28 -33 -32 -45 -6 -20 -3 -23 23 -23 17 0 32 6
36 15 3 8 12 15 21 15 38 0 1 -83 -73 -162 l-26 -28 87 0 87 0 0 30 c0 27 -3
30 -32 30 l-32 0 28 29 c36 38 45 98 20 129 -29 34 -75 39 -107 10z"/>
<path d="M780 1497 c-33 -17 -53 -60 -45 -98 7 -31 47 -65 65 -54 16 10 12 -7
-10 -43 -11 -18 -20 -35 -20 -37 0 -3 15 -5 33 -5 31 0 35 4 62 61 39 81 39
133 2 165 -32 27 -51 29 -87 11z m55 -72 c0 -23 -4 -30 -20 -30 -21 0 -31 25
-21 51 11 28 41 12 41 -21z"/>
<path d="M590 1053 c-24 -9 -50 -35 -50 -51 0 -12 9 -13 45 -9 36 5 45 4 45
-8 0 -8 -9 -15 -20 -15 -15 0 -20 -7 -20 -25 0 -18 5 -25 20 -25 25 0 37 -27
21 -43 -9 -9 -16 -9 -31 1 -19 11 -70 17 -70 7 0 -32 48 -75 85 -75 29 0 64
24 75 51 10 23 9 34 -4 60 -11 22 -13 36 -6 43 40 40 -31 111 -90 89z"/>
<path d="M760 1032 c-36 -36 -46 -88 -29 -143 36 -109 148 -97 165 18 12 80
-32 153 -92 153 -9 0 -28 -13 -44 -28z m74 -63 c13 -39 -1 -99 -23 -99 -26 0
-42 71 -25 115 9 23 37 14 48 -16z"/>
<path d="M610 603 c-24 -9 -50 -35 -50 -51 0 -12 9 -13 45 -9 36 5 45 4 45 -8
0 -8 -9 -15 -20 -15 -15 0 -20 -7 -20 -25 0 -18 5 -25 20 -25 25 0 37 -27 21
-43 -9 -9 -16 -9 -31 1 -19 11 -70 17 -70 7 0 -32 48 -75 85 -75 29 0 64 24
75 51 10 23 9 34 -4 60 -11 22 -13 36 -6 43 40 40 -31 111 -90 89z"/>
<path d="M760 580 c0 -20 5 -30 15 -30 12 0 15 -17 15 -95 l0 -95 30 0 30 0 0
125 0 125 -45 0 c-43 0 -45 -1 -45 -30z"/>
</g>
</svg>
