<?xml version="1.0" standalone="no"?>
<!DOCTYPE svg PUBLIC "-//W3C//DTD SVG 20010904//EN"
 "http://www.w3.org/TR/2001/REC-SVG-20010904/DTD/svg10.dtd">
<svg version="1.0" xmlns="http://www.w3.org/2000/svg"
 width="1404.000000pt" height="1872.000000pt" viewBox="0 0 1404.000000 1872.000000"
 preserveAspectRatio="xMidYMid meet">
<metadata>
Created by potrace 1.16, written by Peter Selinger 2001-2019
</metadata>
<g transform="translate(0.000000,1872.000000) scale(0.100000,-0.100000)"
fill="#000000" stroke="none">
<path d="M20 16920 c0 -20 7 -20 6995 -20 6988 0 6995 0 6995 20 0 20 -7 20
-6995 20 -6988 0 -6995 0 -6995 -20z"/>
<path d="M20 14220 c0 -20 7 -20 6995 -20 6988 0 6995 0 6995 20 0 20 -7 20
-6995 20 -6988 0 -6995 0 -6995 -20z"/>
<path d="M20 11520 c0 -20 7 -20 6995 -20 6988 0 6995 0 6995 20 0 20 -7 20
-6995 20 -6988 0 -6995 0 -6995 -20z"/>
<path d="M20 8820 c0 -20 7 -20 6995 -20 6988 0 6995 0 6995 20 0 20 -7 20
-6995 20 -6988 0 -6995 0 -6995 -20z"/>
<path d="M20 6120 c0 -20 7 -20 6995 -20 6988 0 6995 0 6995 20 0 20 -7 20
-6995 20 -6988 0 -6995 0 -6995 -20z"/>
<path d="M20 3420 c0 -20 7 -20 3375 -20 l3375 0 0 -1700 c0 -1693 0 -1700 20
-1700 20 0 20 7 20 1700 l0 1700 3600 0 c3593 0 3600 0 3600 20 0 20 -7 20
-6995 20 -6988 0 -6995 0 -6995 -20z"/>
</g>
</svg>
